%TF.GenerationSoftware,KiCad,Pcbnew,5.1.10-88a1d61d58~88~ubuntu20.04.1*%
%TF.CreationDate,2021-05-12T22:29:20-07:00*%
%TF.ProjectId,8-pin_soic_ic_tht_breakout,382d7069-6e5f-4736-9f69-635f69635f74,rev?*%
%TF.SameCoordinates,Original*%
%TF.FileFunction,Copper,L1,Top*%
%TF.FilePolarity,Positive*%
%FSLAX46Y46*%
G04 Gerber Fmt 4.6, Leading zero omitted, Abs format (unit mm)*
G04 Created by KiCad (PCBNEW 5.1.10-88a1d61d58~88~ubuntu20.04.1) date 2021-05-12 22:29:20*
%MOMM*%
%LPD*%
G01*
G04 APERTURE LIST*
%TA.AperFunction,ComponentPad*%
%ADD10O,1.700000X1.700000*%
%TD*%
%TA.AperFunction,ComponentPad*%
%ADD11R,1.700000X1.700000*%
%TD*%
%TA.AperFunction,Conductor*%
%ADD12C,0.250000*%
%TD*%
%TA.AperFunction,NonConductor*%
%ADD13C,0.254000*%
%TD*%
%TA.AperFunction,NonConductor*%
%ADD14C,0.100000*%
%TD*%
G04 APERTURE END LIST*
D10*
%TO.P,REF\u002A\u002A,4*%
%TO.N,N/C*%
X147320000Y-96520000D03*
%TO.P,REF\u002A\u002A,3*%
X147320000Y-93980000D03*
%TO.P,REF\u002A\u002A,2*%
X147320000Y-91440000D03*
D11*
%TO.P,REF\u002A\u002A,1*%
X147320000Y-88900000D03*
%TD*%
D10*
%TO.P,REF\u002A\u002A,4*%
%TO.N,N/C*%
X129540000Y-96520000D03*
%TO.P,REF\u002A\u002A,3*%
X129540000Y-93980000D03*
%TO.P,REF\u002A\u002A,2*%
X129540000Y-91440000D03*
D11*
%TO.P,REF\u002A\u002A,1*%
X129540000Y-88900000D03*
%TD*%
%TO.P,REF\u002A\u002A,8*%
%TO.N,N/C*%
%TA.AperFunction,SMDPad,CuDef*%
G36*
G01*
X142855000Y-90955000D02*
X142855000Y-90655000D01*
G75*
G02*
X143005000Y-90505000I150000J0D01*
G01*
X144505000Y-90505000D01*
G75*
G02*
X144655000Y-90655000I0J-150000D01*
G01*
X144655000Y-90955000D01*
G75*
G02*
X144505000Y-91105000I-150000J0D01*
G01*
X143005000Y-91105000D01*
G75*
G02*
X142855000Y-90955000I0J150000D01*
G01*
G37*
%TD.AperFunction*%
%TO.P,REF\u002A\u002A,7*%
%TA.AperFunction,SMDPad,CuDef*%
G36*
G01*
X142855000Y-92225000D02*
X142855000Y-91925000D01*
G75*
G02*
X143005000Y-91775000I150000J0D01*
G01*
X144505000Y-91775000D01*
G75*
G02*
X144655000Y-91925000I0J-150000D01*
G01*
X144655000Y-92225000D01*
G75*
G02*
X144505000Y-92375000I-150000J0D01*
G01*
X143005000Y-92375000D01*
G75*
G02*
X142855000Y-92225000I0J150000D01*
G01*
G37*
%TD.AperFunction*%
%TO.P,REF\u002A\u002A,6*%
%TA.AperFunction,SMDPad,CuDef*%
G36*
G01*
X142855000Y-93495000D02*
X142855000Y-93195000D01*
G75*
G02*
X143005000Y-93045000I150000J0D01*
G01*
X144505000Y-93045000D01*
G75*
G02*
X144655000Y-93195000I0J-150000D01*
G01*
X144655000Y-93495000D01*
G75*
G02*
X144505000Y-93645000I-150000J0D01*
G01*
X143005000Y-93645000D01*
G75*
G02*
X142855000Y-93495000I0J150000D01*
G01*
G37*
%TD.AperFunction*%
%TO.P,REF\u002A\u002A,5*%
%TA.AperFunction,SMDPad,CuDef*%
G36*
G01*
X142855000Y-94765000D02*
X142855000Y-94465000D01*
G75*
G02*
X143005000Y-94315000I150000J0D01*
G01*
X144505000Y-94315000D01*
G75*
G02*
X144655000Y-94465000I0J-150000D01*
G01*
X144655000Y-94765000D01*
G75*
G02*
X144505000Y-94915000I-150000J0D01*
G01*
X143005000Y-94915000D01*
G75*
G02*
X142855000Y-94765000I0J150000D01*
G01*
G37*
%TD.AperFunction*%
%TO.P,REF\u002A\u002A,4*%
%TA.AperFunction,SMDPad,CuDef*%
G36*
G01*
X132205000Y-94765000D02*
X132205000Y-94465000D01*
G75*
G02*
X132355000Y-94315000I150000J0D01*
G01*
X133855000Y-94315000D01*
G75*
G02*
X134005000Y-94465000I0J-150000D01*
G01*
X134005000Y-94765000D01*
G75*
G02*
X133855000Y-94915000I-150000J0D01*
G01*
X132355000Y-94915000D01*
G75*
G02*
X132205000Y-94765000I0J150000D01*
G01*
G37*
%TD.AperFunction*%
%TO.P,REF\u002A\u002A,3*%
%TA.AperFunction,SMDPad,CuDef*%
G36*
G01*
X132205000Y-93495000D02*
X132205000Y-93195000D01*
G75*
G02*
X132355000Y-93045000I150000J0D01*
G01*
X133855000Y-93045000D01*
G75*
G02*
X134005000Y-93195000I0J-150000D01*
G01*
X134005000Y-93495000D01*
G75*
G02*
X133855000Y-93645000I-150000J0D01*
G01*
X132355000Y-93645000D01*
G75*
G02*
X132205000Y-93495000I0J150000D01*
G01*
G37*
%TD.AperFunction*%
%TO.P,REF\u002A\u002A,2*%
%TA.AperFunction,SMDPad,CuDef*%
G36*
G01*
X132205000Y-92225000D02*
X132205000Y-91925000D01*
G75*
G02*
X132355000Y-91775000I150000J0D01*
G01*
X133855000Y-91775000D01*
G75*
G02*
X134005000Y-91925000I0J-150000D01*
G01*
X134005000Y-92225000D01*
G75*
G02*
X133855000Y-92375000I-150000J0D01*
G01*
X132355000Y-92375000D01*
G75*
G02*
X132205000Y-92225000I0J150000D01*
G01*
G37*
%TD.AperFunction*%
%TO.P,REF\u002A\u002A,1*%
%TA.AperFunction,SMDPad,CuDef*%
G36*
G01*
X132205000Y-90955000D02*
X132205000Y-90655000D01*
G75*
G02*
X132355000Y-90505000I150000J0D01*
G01*
X133855000Y-90505000D01*
G75*
G02*
X134005000Y-90655000I0J-150000D01*
G01*
X134005000Y-90955000D01*
G75*
G02*
X133855000Y-91105000I-150000J0D01*
G01*
X132355000Y-91105000D01*
G75*
G02*
X132205000Y-90955000I0J150000D01*
G01*
G37*
%TD.AperFunction*%
%TD*%
D12*
%TO.N,*%
X133105000Y-90805000D02*
X131699000Y-90805000D01*
X129794000Y-88900000D02*
X129540000Y-88900000D01*
X131699000Y-90805000D02*
X129794000Y-88900000D01*
X130175000Y-92075000D02*
X129540000Y-91440000D01*
X133105000Y-92075000D02*
X130175000Y-92075000D01*
X130175000Y-93345000D02*
X129540000Y-93980000D01*
X133105000Y-93345000D02*
X130175000Y-93345000D01*
X131445000Y-94615000D02*
X129540000Y-96520000D01*
X133105000Y-94615000D02*
X131445000Y-94615000D01*
X143755000Y-90805000D02*
X145161000Y-90805000D01*
X147066000Y-88900000D02*
X147320000Y-88900000D01*
X145161000Y-90805000D02*
X147066000Y-88900000D01*
X146685000Y-92075000D02*
X147320000Y-91440000D01*
X143755000Y-92075000D02*
X146685000Y-92075000D01*
X146685000Y-93345000D02*
X147320000Y-93980000D01*
X143755000Y-93345000D02*
X146685000Y-93345000D01*
X145415000Y-94615000D02*
X147320000Y-96520000D01*
X143755000Y-94615000D02*
X145415000Y-94615000D01*
%TD*%
D13*
X146018815Y-87598815D02*
X145939463Y-87695506D01*
X145880498Y-87805820D01*
X145844188Y-87925518D01*
X145831928Y-88050000D01*
X145831928Y-89059270D01*
X144909351Y-89981848D01*
X144806582Y-89926916D01*
X144658745Y-89882071D01*
X144505000Y-89866928D01*
X143005000Y-89866928D01*
X142851255Y-89882071D01*
X142703418Y-89926916D01*
X142567171Y-89999742D01*
X142447749Y-90097749D01*
X142349742Y-90217171D01*
X142276916Y-90353418D01*
X142232071Y-90501255D01*
X142216928Y-90655000D01*
X142216928Y-90955000D01*
X142232071Y-91108745D01*
X142276916Y-91256582D01*
X142349742Y-91392829D01*
X142388454Y-91440000D01*
X142349742Y-91487171D01*
X142276916Y-91623418D01*
X142232071Y-91771255D01*
X142216928Y-91925000D01*
X142216928Y-92225000D01*
X142232071Y-92378745D01*
X142276916Y-92526582D01*
X142349742Y-92662829D01*
X142388454Y-92710000D01*
X142349742Y-92757171D01*
X142276916Y-92893418D01*
X142232071Y-93041255D01*
X142216928Y-93195000D01*
X142216928Y-93495000D01*
X142232071Y-93648745D01*
X142276916Y-93796582D01*
X142349742Y-93932829D01*
X142388454Y-93980000D01*
X142349742Y-94027171D01*
X142276916Y-94163418D01*
X142232071Y-94311255D01*
X142216928Y-94465000D01*
X142216928Y-94765000D01*
X142232071Y-94918745D01*
X142276916Y-95066582D01*
X142349742Y-95202829D01*
X142447749Y-95322251D01*
X142567171Y-95420258D01*
X142703418Y-95493084D01*
X142851255Y-95537929D01*
X143005000Y-95553072D01*
X144505000Y-95553072D01*
X144658745Y-95537929D01*
X144806582Y-95493084D01*
X144942829Y-95420258D01*
X144997976Y-95375000D01*
X145100199Y-95375000D01*
X145878790Y-96153592D01*
X145835000Y-96373740D01*
X145835000Y-96666260D01*
X145892068Y-96953158D01*
X146004010Y-97223411D01*
X146166525Y-97466632D01*
X146373368Y-97673475D01*
X146616589Y-97835990D01*
X146751810Y-97892000D01*
X130108190Y-97892000D01*
X130243411Y-97835990D01*
X130486632Y-97673475D01*
X130693475Y-97466632D01*
X130855990Y-97223411D01*
X130967932Y-96953158D01*
X131025000Y-96666260D01*
X131025000Y-96373740D01*
X130981209Y-96153592D01*
X131759802Y-95375000D01*
X131862024Y-95375000D01*
X131917171Y-95420258D01*
X132053418Y-95493084D01*
X132201255Y-95537929D01*
X132355000Y-95553072D01*
X133855000Y-95553072D01*
X134008745Y-95537929D01*
X134156582Y-95493084D01*
X134292829Y-95420258D01*
X134412251Y-95322251D01*
X134510258Y-95202829D01*
X134583084Y-95066582D01*
X134627929Y-94918745D01*
X134643072Y-94765000D01*
X134643072Y-94465000D01*
X134627929Y-94311255D01*
X134583084Y-94163418D01*
X134510258Y-94027171D01*
X134471546Y-93980000D01*
X134510258Y-93932829D01*
X134583084Y-93796582D01*
X134627929Y-93648745D01*
X134643072Y-93495000D01*
X134643072Y-93195000D01*
X134627929Y-93041255D01*
X134583084Y-92893418D01*
X134510258Y-92757171D01*
X134471546Y-92710000D01*
X134510258Y-92662829D01*
X134583084Y-92526582D01*
X134627929Y-92378745D01*
X134643072Y-92225000D01*
X134643072Y-91925000D01*
X134627929Y-91771255D01*
X134583084Y-91623418D01*
X134510258Y-91487171D01*
X134471546Y-91440000D01*
X134510258Y-91392829D01*
X134583084Y-91256582D01*
X134627929Y-91108745D01*
X134643072Y-90955000D01*
X134643072Y-90655000D01*
X134627929Y-90501255D01*
X134583084Y-90353418D01*
X134510258Y-90217171D01*
X134412251Y-90097749D01*
X134292829Y-89999742D01*
X134156582Y-89926916D01*
X134008745Y-89882071D01*
X133855000Y-89866928D01*
X132355000Y-89866928D01*
X132201255Y-89882071D01*
X132053418Y-89926916D01*
X131950649Y-89981847D01*
X131028072Y-89059271D01*
X131028072Y-88050000D01*
X131015812Y-87925518D01*
X130979502Y-87805820D01*
X130920537Y-87695506D01*
X130841185Y-87598815D01*
X130754896Y-87528000D01*
X146105104Y-87528000D01*
X146018815Y-87598815D01*
%TA.AperFunction,NonConductor*%
D14*
G36*
X146018815Y-87598815D02*
G01*
X145939463Y-87695506D01*
X145880498Y-87805820D01*
X145844188Y-87925518D01*
X145831928Y-88050000D01*
X145831928Y-89059270D01*
X144909351Y-89981848D01*
X144806582Y-89926916D01*
X144658745Y-89882071D01*
X144505000Y-89866928D01*
X143005000Y-89866928D01*
X142851255Y-89882071D01*
X142703418Y-89926916D01*
X142567171Y-89999742D01*
X142447749Y-90097749D01*
X142349742Y-90217171D01*
X142276916Y-90353418D01*
X142232071Y-90501255D01*
X142216928Y-90655000D01*
X142216928Y-90955000D01*
X142232071Y-91108745D01*
X142276916Y-91256582D01*
X142349742Y-91392829D01*
X142388454Y-91440000D01*
X142349742Y-91487171D01*
X142276916Y-91623418D01*
X142232071Y-91771255D01*
X142216928Y-91925000D01*
X142216928Y-92225000D01*
X142232071Y-92378745D01*
X142276916Y-92526582D01*
X142349742Y-92662829D01*
X142388454Y-92710000D01*
X142349742Y-92757171D01*
X142276916Y-92893418D01*
X142232071Y-93041255D01*
X142216928Y-93195000D01*
X142216928Y-93495000D01*
X142232071Y-93648745D01*
X142276916Y-93796582D01*
X142349742Y-93932829D01*
X142388454Y-93980000D01*
X142349742Y-94027171D01*
X142276916Y-94163418D01*
X142232071Y-94311255D01*
X142216928Y-94465000D01*
X142216928Y-94765000D01*
X142232071Y-94918745D01*
X142276916Y-95066582D01*
X142349742Y-95202829D01*
X142447749Y-95322251D01*
X142567171Y-95420258D01*
X142703418Y-95493084D01*
X142851255Y-95537929D01*
X143005000Y-95553072D01*
X144505000Y-95553072D01*
X144658745Y-95537929D01*
X144806582Y-95493084D01*
X144942829Y-95420258D01*
X144997976Y-95375000D01*
X145100199Y-95375000D01*
X145878790Y-96153592D01*
X145835000Y-96373740D01*
X145835000Y-96666260D01*
X145892068Y-96953158D01*
X146004010Y-97223411D01*
X146166525Y-97466632D01*
X146373368Y-97673475D01*
X146616589Y-97835990D01*
X146751810Y-97892000D01*
X130108190Y-97892000D01*
X130243411Y-97835990D01*
X130486632Y-97673475D01*
X130693475Y-97466632D01*
X130855990Y-97223411D01*
X130967932Y-96953158D01*
X131025000Y-96666260D01*
X131025000Y-96373740D01*
X130981209Y-96153592D01*
X131759802Y-95375000D01*
X131862024Y-95375000D01*
X131917171Y-95420258D01*
X132053418Y-95493084D01*
X132201255Y-95537929D01*
X132355000Y-95553072D01*
X133855000Y-95553072D01*
X134008745Y-95537929D01*
X134156582Y-95493084D01*
X134292829Y-95420258D01*
X134412251Y-95322251D01*
X134510258Y-95202829D01*
X134583084Y-95066582D01*
X134627929Y-94918745D01*
X134643072Y-94765000D01*
X134643072Y-94465000D01*
X134627929Y-94311255D01*
X134583084Y-94163418D01*
X134510258Y-94027171D01*
X134471546Y-93980000D01*
X134510258Y-93932829D01*
X134583084Y-93796582D01*
X134627929Y-93648745D01*
X134643072Y-93495000D01*
X134643072Y-93195000D01*
X134627929Y-93041255D01*
X134583084Y-92893418D01*
X134510258Y-92757171D01*
X134471546Y-92710000D01*
X134510258Y-92662829D01*
X134583084Y-92526582D01*
X134627929Y-92378745D01*
X134643072Y-92225000D01*
X134643072Y-91925000D01*
X134627929Y-91771255D01*
X134583084Y-91623418D01*
X134510258Y-91487171D01*
X134471546Y-91440000D01*
X134510258Y-91392829D01*
X134583084Y-91256582D01*
X134627929Y-91108745D01*
X134643072Y-90955000D01*
X134643072Y-90655000D01*
X134627929Y-90501255D01*
X134583084Y-90353418D01*
X134510258Y-90217171D01*
X134412251Y-90097749D01*
X134292829Y-89999742D01*
X134156582Y-89926916D01*
X134008745Y-89882071D01*
X133855000Y-89866928D01*
X132355000Y-89866928D01*
X132201255Y-89882071D01*
X132053418Y-89926916D01*
X131950649Y-89981847D01*
X131028072Y-89059271D01*
X131028072Y-88050000D01*
X131015812Y-87925518D01*
X130979502Y-87805820D01*
X130920537Y-87695506D01*
X130841185Y-87598815D01*
X130754896Y-87528000D01*
X146105104Y-87528000D01*
X146018815Y-87598815D01*
G37*
%TD.AperFunction*%
D13*
X148692001Y-97892000D02*
X147888190Y-97892000D01*
X148023411Y-97835990D01*
X148266632Y-97673475D01*
X148473475Y-97466632D01*
X148635990Y-97223411D01*
X148692001Y-97088188D01*
X148692001Y-97892000D01*
%TA.AperFunction,NonConductor*%
D14*
G36*
X148692001Y-97892000D02*
G01*
X147888190Y-97892000D01*
X148023411Y-97835990D01*
X148266632Y-97673475D01*
X148473475Y-97466632D01*
X148635990Y-97223411D01*
X148692001Y-97088188D01*
X148692001Y-97892000D01*
G37*
%TD.AperFunction*%
D13*
X128224010Y-97223411D02*
X128386525Y-97466632D01*
X128593368Y-97673475D01*
X128836589Y-97835990D01*
X128971810Y-97892000D01*
X128168000Y-97892000D01*
X128168000Y-97088190D01*
X128224010Y-97223411D01*
%TA.AperFunction,NonConductor*%
D14*
G36*
X128224010Y-97223411D02*
G01*
X128386525Y-97466632D01*
X128593368Y-97673475D01*
X128836589Y-97835990D01*
X128971810Y-97892000D01*
X128168000Y-97892000D01*
X128168000Y-97088190D01*
X128224010Y-97223411D01*
G37*
%TD.AperFunction*%
D13*
X148692001Y-95951812D02*
X148635990Y-95816589D01*
X148473475Y-95573368D01*
X148266632Y-95366525D01*
X148092240Y-95250000D01*
X148266632Y-95133475D01*
X148473475Y-94926632D01*
X148635990Y-94683411D01*
X148692001Y-94548190D01*
X148692001Y-95951812D01*
%TA.AperFunction,NonConductor*%
D14*
G36*
X148692001Y-95951812D02*
G01*
X148635990Y-95816589D01*
X148473475Y-95573368D01*
X148266632Y-95366525D01*
X148092240Y-95250000D01*
X148266632Y-95133475D01*
X148473475Y-94926632D01*
X148635990Y-94683411D01*
X148692001Y-94548190D01*
X148692001Y-95951812D01*
G37*
%TD.AperFunction*%
D13*
X128224010Y-94683411D02*
X128386525Y-94926632D01*
X128593368Y-95133475D01*
X128767760Y-95250000D01*
X128593368Y-95366525D01*
X128386525Y-95573368D01*
X128224010Y-95816589D01*
X128168000Y-95951810D01*
X128168000Y-94548190D01*
X128224010Y-94683411D01*
%TA.AperFunction,NonConductor*%
D14*
G36*
X128224010Y-94683411D02*
G01*
X128386525Y-94926632D01*
X128593368Y-95133475D01*
X128767760Y-95250000D01*
X128593368Y-95366525D01*
X128386525Y-95573368D01*
X128224010Y-95816589D01*
X128168000Y-95951810D01*
X128168000Y-94548190D01*
X128224010Y-94683411D01*
G37*
%TD.AperFunction*%
D13*
X148692001Y-93411810D02*
X148635990Y-93276589D01*
X148473475Y-93033368D01*
X148266632Y-92826525D01*
X148092240Y-92710000D01*
X148266632Y-92593475D01*
X148473475Y-92386632D01*
X148635990Y-92143411D01*
X148692000Y-92008190D01*
X148692001Y-93411810D01*
%TA.AperFunction,NonConductor*%
D14*
G36*
X148692001Y-93411810D02*
G01*
X148635990Y-93276589D01*
X148473475Y-93033368D01*
X148266632Y-92826525D01*
X148092240Y-92710000D01*
X148266632Y-92593475D01*
X148473475Y-92386632D01*
X148635990Y-92143411D01*
X148692000Y-92008190D01*
X148692001Y-93411810D01*
G37*
%TD.AperFunction*%
D13*
X128224010Y-92143411D02*
X128386525Y-92386632D01*
X128593368Y-92593475D01*
X128767760Y-92710000D01*
X128593368Y-92826525D01*
X128386525Y-93033368D01*
X128224010Y-93276589D01*
X128168000Y-93411810D01*
X128168000Y-92008190D01*
X128224010Y-92143411D01*
%TA.AperFunction,NonConductor*%
D14*
G36*
X128224010Y-92143411D02*
G01*
X128386525Y-92386632D01*
X128593368Y-92593475D01*
X128767760Y-92710000D01*
X128593368Y-92826525D01*
X128386525Y-93033368D01*
X128224010Y-93276589D01*
X128168000Y-93411810D01*
X128168000Y-92008190D01*
X128224010Y-92143411D01*
G37*
%TD.AperFunction*%
D13*
X145835000Y-91293740D02*
X145835000Y-91315000D01*
X145725801Y-91315000D01*
X145856836Y-91183965D01*
X145835000Y-91293740D01*
%TA.AperFunction,NonConductor*%
D14*
G36*
X145835000Y-91293740D02*
G01*
X145835000Y-91315000D01*
X145725801Y-91315000D01*
X145856836Y-91183965D01*
X145835000Y-91293740D01*
G37*
%TD.AperFunction*%
D13*
X131134198Y-91315000D02*
X131025000Y-91315000D01*
X131025000Y-91293740D01*
X131003165Y-91183966D01*
X131134198Y-91315000D01*
%TA.AperFunction,NonConductor*%
D14*
G36*
X131134198Y-91315000D02*
G01*
X131025000Y-91315000D01*
X131025000Y-91293740D01*
X131003165Y-91183966D01*
X131134198Y-91315000D01*
G37*
%TD.AperFunction*%
D13*
X128238815Y-90201185D02*
X128335506Y-90280537D01*
X128445820Y-90339502D01*
X128518380Y-90361513D01*
X128386525Y-90493368D01*
X128224010Y-90736589D01*
X128168000Y-90871810D01*
X128168000Y-90114896D01*
X128238815Y-90201185D01*
%TA.AperFunction,NonConductor*%
D14*
G36*
X128238815Y-90201185D02*
G01*
X128335506Y-90280537D01*
X128445820Y-90339502D01*
X128518380Y-90361513D01*
X128386525Y-90493368D01*
X128224010Y-90736589D01*
X128168000Y-90871810D01*
X128168000Y-90114896D01*
X128238815Y-90201185D01*
G37*
%TD.AperFunction*%
D13*
X148692000Y-90871810D02*
X148635990Y-90736589D01*
X148473475Y-90493368D01*
X148341620Y-90361513D01*
X148414180Y-90339502D01*
X148524494Y-90280537D01*
X148621185Y-90201185D01*
X148692000Y-90114896D01*
X148692000Y-90871810D01*
%TA.AperFunction,NonConductor*%
D14*
G36*
X148692000Y-90871810D02*
G01*
X148635990Y-90736589D01*
X148473475Y-90493368D01*
X148341620Y-90361513D01*
X148414180Y-90339502D01*
X148524494Y-90280537D01*
X148621185Y-90201185D01*
X148692000Y-90114896D01*
X148692000Y-90871810D01*
G37*
%TD.AperFunction*%
D13*
X128238815Y-87598815D02*
X128168000Y-87685104D01*
X128168000Y-87528000D01*
X128325104Y-87528000D01*
X128238815Y-87598815D01*
%TA.AperFunction,NonConductor*%
D14*
G36*
X128238815Y-87598815D02*
G01*
X128168000Y-87685104D01*
X128168000Y-87528000D01*
X128325104Y-87528000D01*
X128238815Y-87598815D01*
G37*
%TD.AperFunction*%
D13*
X148692000Y-87685104D02*
X148621185Y-87598815D01*
X148534896Y-87528000D01*
X148692000Y-87528000D01*
X148692000Y-87685104D01*
%TA.AperFunction,NonConductor*%
D14*
G36*
X148692000Y-87685104D02*
G01*
X148621185Y-87598815D01*
X148534896Y-87528000D01*
X148692000Y-87528000D01*
X148692000Y-87685104D01*
G37*
%TD.AperFunction*%
D13*
X146018815Y-87598815D02*
X145939463Y-87695506D01*
X145880498Y-87805820D01*
X145844188Y-87925518D01*
X145831928Y-88050000D01*
X145831928Y-89059270D01*
X144909351Y-89981848D01*
X144806582Y-89926916D01*
X144658745Y-89882071D01*
X144505000Y-89866928D01*
X143005000Y-89866928D01*
X142851255Y-89882071D01*
X142703418Y-89926916D01*
X142567171Y-89999742D01*
X142447749Y-90097749D01*
X142349742Y-90217171D01*
X142276916Y-90353418D01*
X142232071Y-90501255D01*
X142216928Y-90655000D01*
X142216928Y-90955000D01*
X142232071Y-91108745D01*
X142276916Y-91256582D01*
X142349742Y-91392829D01*
X142388454Y-91440000D01*
X142349742Y-91487171D01*
X142276916Y-91623418D01*
X142232071Y-91771255D01*
X142216928Y-91925000D01*
X142216928Y-92225000D01*
X142232071Y-92378745D01*
X142276916Y-92526582D01*
X142349742Y-92662829D01*
X142388454Y-92710000D01*
X142349742Y-92757171D01*
X142276916Y-92893418D01*
X142232071Y-93041255D01*
X142216928Y-93195000D01*
X142216928Y-93495000D01*
X142232071Y-93648745D01*
X142276916Y-93796582D01*
X142349742Y-93932829D01*
X142388454Y-93980000D01*
X142349742Y-94027171D01*
X142276916Y-94163418D01*
X142232071Y-94311255D01*
X142216928Y-94465000D01*
X142216928Y-94765000D01*
X142232071Y-94918745D01*
X142276916Y-95066582D01*
X142349742Y-95202829D01*
X142447749Y-95322251D01*
X142567171Y-95420258D01*
X142703418Y-95493084D01*
X142851255Y-95537929D01*
X143005000Y-95553072D01*
X144505000Y-95553072D01*
X144658745Y-95537929D01*
X144806582Y-95493084D01*
X144942829Y-95420258D01*
X144997976Y-95375000D01*
X145100199Y-95375000D01*
X145878790Y-96153592D01*
X145835000Y-96373740D01*
X145835000Y-96666260D01*
X145892068Y-96953158D01*
X146004010Y-97223411D01*
X146166525Y-97466632D01*
X146373368Y-97673475D01*
X146616589Y-97835990D01*
X146751810Y-97892000D01*
X130108190Y-97892000D01*
X130243411Y-97835990D01*
X130486632Y-97673475D01*
X130693475Y-97466632D01*
X130855990Y-97223411D01*
X130967932Y-96953158D01*
X131025000Y-96666260D01*
X131025000Y-96373740D01*
X130981209Y-96153592D01*
X131759802Y-95375000D01*
X131862024Y-95375000D01*
X131917171Y-95420258D01*
X132053418Y-95493084D01*
X132201255Y-95537929D01*
X132355000Y-95553072D01*
X133855000Y-95553072D01*
X134008745Y-95537929D01*
X134156582Y-95493084D01*
X134292829Y-95420258D01*
X134412251Y-95322251D01*
X134510258Y-95202829D01*
X134583084Y-95066582D01*
X134627929Y-94918745D01*
X134643072Y-94765000D01*
X134643072Y-94465000D01*
X134627929Y-94311255D01*
X134583084Y-94163418D01*
X134510258Y-94027171D01*
X134471546Y-93980000D01*
X134510258Y-93932829D01*
X134583084Y-93796582D01*
X134627929Y-93648745D01*
X134643072Y-93495000D01*
X134643072Y-93195000D01*
X134627929Y-93041255D01*
X134583084Y-92893418D01*
X134510258Y-92757171D01*
X134471546Y-92710000D01*
X134510258Y-92662829D01*
X134583084Y-92526582D01*
X134627929Y-92378745D01*
X134643072Y-92225000D01*
X134643072Y-91925000D01*
X134627929Y-91771255D01*
X134583084Y-91623418D01*
X134510258Y-91487171D01*
X134471546Y-91440000D01*
X134510258Y-91392829D01*
X134583084Y-91256582D01*
X134627929Y-91108745D01*
X134643072Y-90955000D01*
X134643072Y-90655000D01*
X134627929Y-90501255D01*
X134583084Y-90353418D01*
X134510258Y-90217171D01*
X134412251Y-90097749D01*
X134292829Y-89999742D01*
X134156582Y-89926916D01*
X134008745Y-89882071D01*
X133855000Y-89866928D01*
X132355000Y-89866928D01*
X132201255Y-89882071D01*
X132053418Y-89926916D01*
X131950649Y-89981847D01*
X131028072Y-89059271D01*
X131028072Y-88050000D01*
X131015812Y-87925518D01*
X130979502Y-87805820D01*
X130920537Y-87695506D01*
X130841185Y-87598815D01*
X130754896Y-87528000D01*
X146105104Y-87528000D01*
X146018815Y-87598815D01*
%TA.AperFunction,NonConductor*%
D14*
G36*
X146018815Y-87598815D02*
G01*
X145939463Y-87695506D01*
X145880498Y-87805820D01*
X145844188Y-87925518D01*
X145831928Y-88050000D01*
X145831928Y-89059270D01*
X144909351Y-89981848D01*
X144806582Y-89926916D01*
X144658745Y-89882071D01*
X144505000Y-89866928D01*
X143005000Y-89866928D01*
X142851255Y-89882071D01*
X142703418Y-89926916D01*
X142567171Y-89999742D01*
X142447749Y-90097749D01*
X142349742Y-90217171D01*
X142276916Y-90353418D01*
X142232071Y-90501255D01*
X142216928Y-90655000D01*
X142216928Y-90955000D01*
X142232071Y-91108745D01*
X142276916Y-91256582D01*
X142349742Y-91392829D01*
X142388454Y-91440000D01*
X142349742Y-91487171D01*
X142276916Y-91623418D01*
X142232071Y-91771255D01*
X142216928Y-91925000D01*
X142216928Y-92225000D01*
X142232071Y-92378745D01*
X142276916Y-92526582D01*
X142349742Y-92662829D01*
X142388454Y-92710000D01*
X142349742Y-92757171D01*
X142276916Y-92893418D01*
X142232071Y-93041255D01*
X142216928Y-93195000D01*
X142216928Y-93495000D01*
X142232071Y-93648745D01*
X142276916Y-93796582D01*
X142349742Y-93932829D01*
X142388454Y-93980000D01*
X142349742Y-94027171D01*
X142276916Y-94163418D01*
X142232071Y-94311255D01*
X142216928Y-94465000D01*
X142216928Y-94765000D01*
X142232071Y-94918745D01*
X142276916Y-95066582D01*
X142349742Y-95202829D01*
X142447749Y-95322251D01*
X142567171Y-95420258D01*
X142703418Y-95493084D01*
X142851255Y-95537929D01*
X143005000Y-95553072D01*
X144505000Y-95553072D01*
X144658745Y-95537929D01*
X144806582Y-95493084D01*
X144942829Y-95420258D01*
X144997976Y-95375000D01*
X145100199Y-95375000D01*
X145878790Y-96153592D01*
X145835000Y-96373740D01*
X145835000Y-96666260D01*
X145892068Y-96953158D01*
X146004010Y-97223411D01*
X146166525Y-97466632D01*
X146373368Y-97673475D01*
X146616589Y-97835990D01*
X146751810Y-97892000D01*
X130108190Y-97892000D01*
X130243411Y-97835990D01*
X130486632Y-97673475D01*
X130693475Y-97466632D01*
X130855990Y-97223411D01*
X130967932Y-96953158D01*
X131025000Y-96666260D01*
X131025000Y-96373740D01*
X130981209Y-96153592D01*
X131759802Y-95375000D01*
X131862024Y-95375000D01*
X131917171Y-95420258D01*
X132053418Y-95493084D01*
X132201255Y-95537929D01*
X132355000Y-95553072D01*
X133855000Y-95553072D01*
X134008745Y-95537929D01*
X134156582Y-95493084D01*
X134292829Y-95420258D01*
X134412251Y-95322251D01*
X134510258Y-95202829D01*
X134583084Y-95066582D01*
X134627929Y-94918745D01*
X134643072Y-94765000D01*
X134643072Y-94465000D01*
X134627929Y-94311255D01*
X134583084Y-94163418D01*
X134510258Y-94027171D01*
X134471546Y-93980000D01*
X134510258Y-93932829D01*
X134583084Y-93796582D01*
X134627929Y-93648745D01*
X134643072Y-93495000D01*
X134643072Y-93195000D01*
X134627929Y-93041255D01*
X134583084Y-92893418D01*
X134510258Y-92757171D01*
X134471546Y-92710000D01*
X134510258Y-92662829D01*
X134583084Y-92526582D01*
X134627929Y-92378745D01*
X134643072Y-92225000D01*
X134643072Y-91925000D01*
X134627929Y-91771255D01*
X134583084Y-91623418D01*
X134510258Y-91487171D01*
X134471546Y-91440000D01*
X134510258Y-91392829D01*
X134583084Y-91256582D01*
X134627929Y-91108745D01*
X134643072Y-90955000D01*
X134643072Y-90655000D01*
X134627929Y-90501255D01*
X134583084Y-90353418D01*
X134510258Y-90217171D01*
X134412251Y-90097749D01*
X134292829Y-89999742D01*
X134156582Y-89926916D01*
X134008745Y-89882071D01*
X133855000Y-89866928D01*
X132355000Y-89866928D01*
X132201255Y-89882071D01*
X132053418Y-89926916D01*
X131950649Y-89981847D01*
X131028072Y-89059271D01*
X131028072Y-88050000D01*
X131015812Y-87925518D01*
X130979502Y-87805820D01*
X130920537Y-87695506D01*
X130841185Y-87598815D01*
X130754896Y-87528000D01*
X146105104Y-87528000D01*
X146018815Y-87598815D01*
G37*
%TD.AperFunction*%
D13*
X148692001Y-97892000D02*
X147888190Y-97892000D01*
X148023411Y-97835990D01*
X148266632Y-97673475D01*
X148473475Y-97466632D01*
X148635990Y-97223411D01*
X148692001Y-97088188D01*
X148692001Y-97892000D01*
%TA.AperFunction,NonConductor*%
D14*
G36*
X148692001Y-97892000D02*
G01*
X147888190Y-97892000D01*
X148023411Y-97835990D01*
X148266632Y-97673475D01*
X148473475Y-97466632D01*
X148635990Y-97223411D01*
X148692001Y-97088188D01*
X148692001Y-97892000D01*
G37*
%TD.AperFunction*%
D13*
X128224010Y-97223411D02*
X128386525Y-97466632D01*
X128593368Y-97673475D01*
X128836589Y-97835990D01*
X128971810Y-97892000D01*
X128168000Y-97892000D01*
X128168000Y-97088190D01*
X128224010Y-97223411D01*
%TA.AperFunction,NonConductor*%
D14*
G36*
X128224010Y-97223411D02*
G01*
X128386525Y-97466632D01*
X128593368Y-97673475D01*
X128836589Y-97835990D01*
X128971810Y-97892000D01*
X128168000Y-97892000D01*
X128168000Y-97088190D01*
X128224010Y-97223411D01*
G37*
%TD.AperFunction*%
D13*
X148692001Y-95951812D02*
X148635990Y-95816589D01*
X148473475Y-95573368D01*
X148266632Y-95366525D01*
X148092240Y-95250000D01*
X148266632Y-95133475D01*
X148473475Y-94926632D01*
X148635990Y-94683411D01*
X148692001Y-94548190D01*
X148692001Y-95951812D01*
%TA.AperFunction,NonConductor*%
D14*
G36*
X148692001Y-95951812D02*
G01*
X148635990Y-95816589D01*
X148473475Y-95573368D01*
X148266632Y-95366525D01*
X148092240Y-95250000D01*
X148266632Y-95133475D01*
X148473475Y-94926632D01*
X148635990Y-94683411D01*
X148692001Y-94548190D01*
X148692001Y-95951812D01*
G37*
%TD.AperFunction*%
D13*
X128224010Y-94683411D02*
X128386525Y-94926632D01*
X128593368Y-95133475D01*
X128767760Y-95250000D01*
X128593368Y-95366525D01*
X128386525Y-95573368D01*
X128224010Y-95816589D01*
X128168000Y-95951810D01*
X128168000Y-94548190D01*
X128224010Y-94683411D01*
%TA.AperFunction,NonConductor*%
D14*
G36*
X128224010Y-94683411D02*
G01*
X128386525Y-94926632D01*
X128593368Y-95133475D01*
X128767760Y-95250000D01*
X128593368Y-95366525D01*
X128386525Y-95573368D01*
X128224010Y-95816589D01*
X128168000Y-95951810D01*
X128168000Y-94548190D01*
X128224010Y-94683411D01*
G37*
%TD.AperFunction*%
D13*
X148692001Y-93411810D02*
X148635990Y-93276589D01*
X148473475Y-93033368D01*
X148266632Y-92826525D01*
X148092240Y-92710000D01*
X148266632Y-92593475D01*
X148473475Y-92386632D01*
X148635990Y-92143411D01*
X148692000Y-92008190D01*
X148692001Y-93411810D01*
%TA.AperFunction,NonConductor*%
D14*
G36*
X148692001Y-93411810D02*
G01*
X148635990Y-93276589D01*
X148473475Y-93033368D01*
X148266632Y-92826525D01*
X148092240Y-92710000D01*
X148266632Y-92593475D01*
X148473475Y-92386632D01*
X148635990Y-92143411D01*
X148692000Y-92008190D01*
X148692001Y-93411810D01*
G37*
%TD.AperFunction*%
D13*
X128224010Y-92143411D02*
X128386525Y-92386632D01*
X128593368Y-92593475D01*
X128767760Y-92710000D01*
X128593368Y-92826525D01*
X128386525Y-93033368D01*
X128224010Y-93276589D01*
X128168000Y-93411810D01*
X128168000Y-92008190D01*
X128224010Y-92143411D01*
%TA.AperFunction,NonConductor*%
D14*
G36*
X128224010Y-92143411D02*
G01*
X128386525Y-92386632D01*
X128593368Y-92593475D01*
X128767760Y-92710000D01*
X128593368Y-92826525D01*
X128386525Y-93033368D01*
X128224010Y-93276589D01*
X128168000Y-93411810D01*
X128168000Y-92008190D01*
X128224010Y-92143411D01*
G37*
%TD.AperFunction*%
D13*
X145835000Y-91293740D02*
X145835000Y-91315000D01*
X145725801Y-91315000D01*
X145856836Y-91183965D01*
X145835000Y-91293740D01*
%TA.AperFunction,NonConductor*%
D14*
G36*
X145835000Y-91293740D02*
G01*
X145835000Y-91315000D01*
X145725801Y-91315000D01*
X145856836Y-91183965D01*
X145835000Y-91293740D01*
G37*
%TD.AperFunction*%
D13*
X131134198Y-91315000D02*
X131025000Y-91315000D01*
X131025000Y-91293740D01*
X131003165Y-91183966D01*
X131134198Y-91315000D01*
%TA.AperFunction,NonConductor*%
D14*
G36*
X131134198Y-91315000D02*
G01*
X131025000Y-91315000D01*
X131025000Y-91293740D01*
X131003165Y-91183966D01*
X131134198Y-91315000D01*
G37*
%TD.AperFunction*%
D13*
X128238815Y-90201185D02*
X128335506Y-90280537D01*
X128445820Y-90339502D01*
X128518380Y-90361513D01*
X128386525Y-90493368D01*
X128224010Y-90736589D01*
X128168000Y-90871810D01*
X128168000Y-90114896D01*
X128238815Y-90201185D01*
%TA.AperFunction,NonConductor*%
D14*
G36*
X128238815Y-90201185D02*
G01*
X128335506Y-90280537D01*
X128445820Y-90339502D01*
X128518380Y-90361513D01*
X128386525Y-90493368D01*
X128224010Y-90736589D01*
X128168000Y-90871810D01*
X128168000Y-90114896D01*
X128238815Y-90201185D01*
G37*
%TD.AperFunction*%
D13*
X148692000Y-90871810D02*
X148635990Y-90736589D01*
X148473475Y-90493368D01*
X148341620Y-90361513D01*
X148414180Y-90339502D01*
X148524494Y-90280537D01*
X148621185Y-90201185D01*
X148692000Y-90114896D01*
X148692000Y-90871810D01*
%TA.AperFunction,NonConductor*%
D14*
G36*
X148692000Y-90871810D02*
G01*
X148635990Y-90736589D01*
X148473475Y-90493368D01*
X148341620Y-90361513D01*
X148414180Y-90339502D01*
X148524494Y-90280537D01*
X148621185Y-90201185D01*
X148692000Y-90114896D01*
X148692000Y-90871810D01*
G37*
%TD.AperFunction*%
D13*
X128238815Y-87598815D02*
X128168000Y-87685104D01*
X128168000Y-87528000D01*
X128325104Y-87528000D01*
X128238815Y-87598815D01*
%TA.AperFunction,NonConductor*%
D14*
G36*
X128238815Y-87598815D02*
G01*
X128168000Y-87685104D01*
X128168000Y-87528000D01*
X128325104Y-87528000D01*
X128238815Y-87598815D01*
G37*
%TD.AperFunction*%
D13*
X148692000Y-87685104D02*
X148621185Y-87598815D01*
X148534896Y-87528000D01*
X148692000Y-87528000D01*
X148692000Y-87685104D01*
%TA.AperFunction,NonConductor*%
D14*
G36*
X148692000Y-87685104D02*
G01*
X148621185Y-87598815D01*
X148534896Y-87528000D01*
X148692000Y-87528000D01*
X148692000Y-87685104D01*
G37*
%TD.AperFunction*%
M02*
